<?xml version="1.0" encoding="utf-8"?>
<!-- Generator: Adobe Illustrator 28.2.0, SVG Export Plug-In . SVG Version: 6.00 Build 0)  -->
<svg version="1.1" id="Layer_1" xmlns="http://www.w3.org/2000/svg" xmlns:xlink="http://www.w3.org/1999/xlink" x="0px" y="0px"
	 viewBox="0 0 32 32" style="enable-background:new 0 0 32 32;" xml:space="preserve">
<style type="text/css">
	.st0{fill:#D6D6E8;}
</style>
<g>
	<path class="st0" d="M17.5,25.4l-3.9,3.9c-3,3-7.9,3-10.8,0s-3-7.9,0-10.8l3.9-3.9c3-3,7.9-3,10.8,0S20.5,22.4,17.5,25.4z
		 M5.6,21.4c-1.4,1.4-1.4,3.6,0,4.9c1.4,1.4,3.6,1.4,4.9,0l3.9-3.9c1.4-1.4,1.4-3.6,0-4.9s-3.6-1.4-4.9,0L5.6,21.4z"/>
</g>
<g>
	<path class="st0" d="M29.3,13.5l-3.9,3.9c-3,3-7.9,3-10.8,0s-3-7.9,0-10.8l3.9-3.9c3-3,7.9-3,10.8,0S32.3,10.5,29.3,13.5z
		 M17.5,9.6c-1.4,1.4-1.4,3.6,0,4.9s3.6,1.4,4.9,0l3.9-3.9c1.4-1.4,1.4-3.6,0-4.9c-1.4-1.4-3.6-1.4-4.9,0L17.5,9.6z"/>
</g>
</svg>
