<?xml version="1.0" encoding="UTF-8" standalone="no"?>
<!DOCTYPE svg PUBLIC "-//W3C//DTD SVG 1.1//EN" "http://www.w3.org/Graphics/SVG/1.1/DTD/svg11.dtd">
<svg width="100%" height="100%" viewBox="0 0 64 64" version="1.1" xmlns="http://www.w3.org/2000/svg" xmlns:xlink="http://www.w3.org/1999/xlink" xml:space="preserve" xmlns:serif="http://www.serif.com/" style="fill-rule:evenodd;clip-rule:evenodd;stroke-linejoin:round;stroke-miterlimit:2;">
    <g transform="matrix(1,0,0,1,-595,-180)">
        <g id="s_icon_64" transform="matrix(1,0,0,1,595,180)">
            <rect x="0" y="0" width="64" height="64" style="fill:none;"/>
            <g id="bg">
            </g>
            <g id="Layer-1" serif:id="Layer 1">
                <g transform="matrix(1,0,0,1,11,2)">
                    <path d="M0,60C-4.963,60 -9,55.962 -9,51L-9,9C-9,4.038 -4.963,0 0,0L42,0C46.963,0 51,4.038 51,9L51,51C51,55.962 46.963,60 42,60L0,60Z" style="fill:rgb(49,49,67);fill-rule:nonzero;"/>
                </g>
                <g transform="matrix(1,0,0,1,11,2)">
                    <path d="M0,60C-4.963,60 -9,55.962 -9,51L-9,9C-9,4.038 -4.963,0 0,0L42,0C46.963,0 51,4.038 51,9L51,51C51,55.962 46.963,60 42,60L0,60Z" style="fill:none;fill-rule:nonzero;stroke:rgb(255,145,102);stroke-width:3px;"/>
                </g>
                <g transform="matrix(1,0,0,1,50,8)">
                    <path d="M0,48L-36,48C-39.314,48 -42,45.314 -42,42L-42,6C-42,2.686 -39.314,0 -36,0L0,0C3.314,0 6,2.686 6,6L6,42C6,45.314 3.314,48 0,48" style="fill:rgb(39,39,54);fill-rule:nonzero;"/>
                </g>
                <g transform="matrix(1,0,0,1,21.6667,14.433)">
                    <path d="M0,14.467C-3.995,14.467 -7.233,11.229 -7.233,7.234C-7.233,3.239 -3.995,0 0,0C3.995,0 7.233,3.239 7.233,7.234C7.233,11.229 3.995,14.467 0,14.467" style="fill:rgb(255,145,102);fill-rule:nonzero;"/>
                </g>
                <g transform="matrix(1,0,0,1,42.3333,35.0997)">
                    <path d="M0,14.467C-3.995,14.467 -7.233,11.229 -7.233,7.234C-7.233,3.239 -3.995,0 0,0C3.995,0 7.233,3.239 7.233,7.234C7.233,11.229 3.995,14.467 0,14.467" style="fill:rgb(255,145,102);fill-rule:nonzero;"/>
                </g>
                <g transform="matrix(1,0,0,1,27.4792,42.3333)">
                    <path d="M0,0C0,3.21 -2.602,5.812 -5.812,5.812C-9.023,5.812 -11.625,3.21 -11.625,0C-11.625,-3.21 -9.023,-5.813 -5.812,-5.813C-2.602,-5.813 0,-3.21 0,0ZM0,-9.3L-11.625,-9.3C-13.551,-9.3 -15.113,-7.739 -15.113,-5.812L-15.113,5.812C-15.113,7.739 -13.551,9.3 -11.625,9.3L0,9.3C1.926,9.3 3.488,7.739 3.488,5.812L3.488,-5.812C3.488,-7.739 1.926,-9.3 0,-9.3" style="fill:rgb(255,145,102);fill-rule:nonzero;"/>
                </g>
                <g transform="matrix(1,0,0,1,48.1458,21.6667)">
                    <path d="M0,0C0,3.21 -2.602,5.812 -5.812,5.812C-9.023,5.812 -11.625,3.21 -11.625,0C-11.625,-3.21 -9.023,-5.813 -5.812,-5.813C-2.602,-5.813 0,-3.21 0,0ZM0,-9.3L-11.625,-9.3C-13.551,-9.3 -15.112,-7.739 -15.112,-5.812L-15.112,5.812C-15.112,7.739 -13.551,9.3 -11.625,9.3L0,9.3C1.926,9.3 3.488,7.739 3.488,5.812L3.488,-5.812C3.488,-7.739 1.926,-9.3 0,-9.3" style="fill:rgb(255,145,102);fill-rule:nonzero;"/>
                </g>
            </g>
        </g>
    </g>
</svg>
