<?xml version="1.0" encoding="UTF-8" standalone="no"?>
<!DOCTYPE svg PUBLIC "-//W3C//DTD SVG 1.1//EN" "http://www.w3.org/Graphics/SVG/1.1/DTD/svg11.dtd">
<svg width="100%" height="100%" viewBox="0 0 32 32" version="1.1" xmlns="http://www.w3.org/2000/svg" xmlns:xlink="http://www.w3.org/1999/xlink" xml:space="preserve" xmlns:serif="http://www.serif.com/" style="fill-rule:evenodd;clip-rule:evenodd;stroke-linejoin:round;stroke-miterlimit:2;">
    <g transform="matrix(1,0,0,1,-663,-180)">
        <g id="s_icon_32" transform="matrix(1,0,0,1,663,180)">
            <rect x="0" y="0" width="32" height="32" style="fill:none;"/>
            <g id="bg">
            </g>
            <g id="Layer-1" serif:id="Layer 1">
                <g transform="matrix(1,0,0,1,7,2)">
                    <path d="M0,28C-2.757,28 -5,25.757 -5,23L-5,5C-5,2.243 -2.757,0 0,0L18,0C20.757,0 23,2.243 23,5L23,23C23,25.757 20.757,28 18,28L0,28Z" style="fill:rgb(49,49,67);fill-rule:nonzero;"/>
                </g>
                <g transform="matrix(1,0,0,1,25,31)">
                    <path d="M0,-30L-18,-30C-21.314,-30 -24,-27.314 -24,-24L-24,-6C-24,-2.686 -21.314,0 -18,0L0,0C3.314,0 6,-2.686 6,-6L6,-24C6,-27.314 3.314,-30 0,-30M0,-28C2.206,-28 4,-26.206 4,-24L4,-6C4,-3.794 2.206,-2 0,-2L-18,-2C-20.206,-2 -22,-3.794 -22,-6L-22,-24C-22,-26.206 -20.206,-28 -18,-28L0,-28Z" style="fill:rgb(255,145,102);fill-rule:nonzero;"/>
                </g>
                <g transform="matrix(1,0,0,1,23,5)">
                    <path d="M0,22L-14,22C-16.209,22 -18,20.209 -18,18L-18,4C-18,1.791 -16.209,0 -14,0L0,0C2.209,0 4,1.791 4,4L4,18C4,20.209 2.209,22 0,22" style="fill:rgb(39,39,54);fill-rule:nonzero;"/>
                </g>
                <g transform="matrix(1,0,0,1,11,7.5)">
                    <path d="M0,7C-1.933,7 -3.5,5.433 -3.5,3.5C-3.5,1.567 -1.933,0 0,0C1.933,0 3.5,1.567 3.5,3.5C3.5,5.433 1.933,7 0,7" style="fill:rgb(255,145,102);fill-rule:nonzero;"/>
                </g>
                <g transform="matrix(1,0,0,1,21,17.5)">
                    <path d="M0,7C-1.933,7 -3.5,5.433 -3.5,3.5C-3.5,1.567 -1.933,0 0,0C1.933,0 3.5,1.567 3.5,3.5C3.5,5.433 1.933,7 0,7" style="fill:rgb(255,145,102);fill-rule:nonzero;"/>
                </g>
                <g transform="matrix(1,0,0,1,13.8125,21)">
                    <path d="M0,0C0,1.553 -1.259,2.813 -2.813,2.813C-4.366,2.813 -5.625,1.553 -5.625,0C-5.625,-1.553 -4.366,-2.813 -2.813,-2.813C-1.259,-2.813 0,-1.553 0,0ZM0,-4.5L-5.625,-4.5C-6.557,-4.5 -7.312,-3.744 -7.312,-2.813L-7.312,2.813C-7.312,3.744 -6.557,4.5 -5.625,4.5L0,4.5C0.932,4.5 1.687,3.744 1.687,2.813L1.687,-2.813C1.687,-3.744 0.932,-4.5 0,-4.5" style="fill:rgb(255,145,102);fill-rule:nonzero;"/>
                </g>
                <g transform="matrix(1,0,0,1,23.8125,11)">
                    <path d="M0,0C0,1.553 -1.259,2.813 -2.813,2.813C-4.366,2.813 -5.625,1.553 -5.625,0C-5.625,-1.553 -4.366,-2.813 -2.813,-2.813C-1.259,-2.813 0,-1.553 0,0ZM0,-4.5L-5.625,-4.5C-6.557,-4.5 -7.312,-3.744 -7.312,-2.813L-7.312,2.813C-7.312,3.744 -6.557,4.5 -5.625,4.5L0,4.5C0.932,4.5 1.687,3.744 1.687,2.813L1.687,-2.813C1.687,-3.744 0.932,-4.5 0,-4.5" style="fill:rgb(255,145,102);fill-rule:nonzero;"/>
                </g>
            </g>
        </g>
    </g>
</svg>
